<svg width="385" height="331" viewBox="0 0 385 331" fill="none" xmlns="http://www.w3.org/2000/svg">
<g opacity="0.05" clip-path="url(#clip0)">
<path d="M349.294 169.258C343.488 159.126 335.748 148.567 327.456 139.149C319.396 130.182 311.01 122.24 303.113 116.901C273.021 97.3373 258.109 110.467 240.4 126.469C234.681 131.423 228.628 136.834 221.767 141.236L219.514 142.4C211.955 145.45 204.039 147.257 196.69 149.056C173.509 154.469 154.057 158.811 152.722 194.899C152.509 204.43 153.91 215.981 156.788 227.626C159.672 239.838 163.808 252.26 168.713 262.857C174.2 274.581 179.634 282.335 185.14 286.913C190.412 291.039 195.764 292.556 201.194 291.463C206.057 290.378 210.781 287.366 214.799 282.435C221.723 274.289 227.903 261.389 233.043 247.029C236.535 236.66 247.857 226.528 260.925 219.775C273.993 213.022 288.807 209.649 299.284 212.799C313.971 216.914 328.069 219.335 338.719 218.4C344.949 217.75 350.255 215.864 353.954 212.526C357.761 208.845 359.962 203.712 359.413 196.573C358.981 189.659 355.799 180.741 349.294 169.258ZM350.122 197.377C350.4 201.23 349.529 203.964 347.626 205.804C345.496 207.761 342.109 208.94 337.806 209.451C328.29 210.372 315.443 208.161 302.006 204.256C289.02 200.118 271.713 203.638 256.617 211.439C241.521 219.239 228.637 231.321 224.042 243.973C219.228 257.308 213.716 269.291 207.569 276.179C204.663 279.393 201.858 281.699 198.914 282.079C196.311 282.567 193.577 281.696 190.596 279.24C186.581 275.891 182.071 269.372 177.166 258.775C172.61 248.854 168.482 236.999 165.83 225.237C163.302 214.268 161.799 203.626 162.137 194.887C163.003 166.178 179.285 162.332 198.737 157.989C206.653 156.183 214.795 154.26 223.03 150.861C223.255 150.744 223.255 150.744 223.48 150.628L225.959 149.347C226.184 149.231 226.184 149.231 226.409 149.114C234.171 144.247 240.45 138.719 246.503 133.307C261.414 120.178 273.855 108.896 297.773 124.798C305.096 129.578 312.791 136.735 320.392 145.368C328.227 154.452 335.617 164.335 341.191 174.016C346.997 184.147 349.705 191.598 350.122 197.377Z" fill="black"/>
<path d="M215.514 182.72C212.213 181.857 208.694 181.677 205.423 183.081C203.685 180.269 200.819 178.038 197.744 177.058L197.402 176.95C193.643 175.752 189.79 176.03 186.185 177.893C182.58 179.756 180.015 183.079 178.926 186.497C177.946 189.572 177.883 193.316 179.288 196.587C176.25 198.442 174.244 201.191 173.039 204.383L172.93 204.725C171.733 208.484 172.011 212.337 173.874 215.942C175.736 219.547 179.06 222.112 182.477 223.2C185.895 224.289 189.297 224.244 192.793 222.723C194.648 225.761 197.514 227.991 200.815 228.855C204.574 230.052 208.427 229.774 212.032 227.911C215.637 226.049 218.201 222.725 219.29 219.308C220.154 216.007 220.334 212.488 218.929 209.217C221.967 207.362 224.197 204.497 225.061 201.196C226.259 197.437 225.98 193.584 224.118 189.979C222.255 186.374 218.931 183.809 215.514 182.72ZM216.401 198.248C215.965 199.615 215.072 200.648 213.72 201.347L210.566 202.977C208.312 204.141 207.216 206.991 208.497 209.47L210.01 212.399C210.709 213.75 210.84 215.11 210.405 216.477C209.969 217.844 209.076 218.876 207.724 219.575C206.372 220.274 205.013 220.405 203.646 219.97C202.279 219.534 201.246 218.64 200.547 217.289L198.917 214.134C197.753 211.881 194.903 210.785 192.424 212.065L189.27 213.695C187.918 214.394 186.559 214.525 185.192 214.09C184.167 213.763 182.909 212.986 182.21 211.634C181.511 210.282 181.38 208.923 181.815 207.556C181.815 207.556 181.815 207.556 181.924 207.214C182.476 206.073 183.37 205.04 184.497 204.458L187.651 202.828C189.904 201.663 191 198.813 189.72 196.335L188.09 193.18C187.391 191.829 187.26 190.469 187.695 189.102C188.131 187.735 189.024 186.702 190.376 186.004C191.728 185.305 193.087 185.174 194.454 185.609C194.454 185.609 194.454 185.609 194.796 185.718C195.938 186.27 196.971 187.164 197.553 188.29L199.183 191.445C200.347 193.698 203.197 194.794 205.676 193.514L208.83 191.884C210.182 191.185 211.541 191.054 212.908 191.489C214.275 191.925 215.308 192.818 216.006 194.17C216.705 195.522 216.837 196.881 216.401 198.248Z" fill="black"/>
<path d="M276.029 152.877C280.384 150.626 282.09 145.271 279.84 140.916C277.589 136.561 272.234 134.855 267.879 137.105C263.524 139.356 261.818 144.711 264.068 149.066C266.319 153.421 271.674 155.127 276.029 152.877Z" fill="black"/>
<path d="M292.561 184.871C296.916 182.621 298.623 177.265 296.372 172.91C294.122 168.555 288.766 166.849 284.411 169.099C280.056 171.35 278.35 176.705 280.6 181.06C282.851 185.415 288.206 187.122 292.561 184.871Z" fill="black"/>
<path d="M268.298 177.14C272.654 174.89 274.36 169.535 272.109 165.179C269.859 160.824 264.504 159.118 260.149 161.368C255.793 163.619 254.087 168.974 256.338 173.329C258.588 177.684 263.943 179.391 268.298 177.14Z" fill="black"/>
<path d="M300.291 160.608C304.646 158.358 306.352 153.003 304.102 148.648C301.851 144.292 296.496 142.586 292.141 144.837C287.786 147.087 286.08 152.442 288.33 156.797C290.581 161.153 295.936 162.859 300.291 160.608Z" fill="black"/>
</g>
<g opacity="0.05" clip-path="url(#clip1)">
<path d="M114.095 125.3C114.094 125.299 114.094 125.299 114.094 125.299L76.6434 90.6378C75.8481 89.9012 74.6059 89.9488 73.8692 90.7442C73.8686 90.7447 73.8681 90.7452 73.8676 90.746L17.8638 151.249C17.64 151.505 17.4882 151.817 17.4238 152.151C16.9914 152.724 16.9102 153.488 17.213 154.139L39.1854 200.206C39.6521 201.184 40.8238 201.599 41.8023 201.133L116.218 165.639C117.197 165.172 117.612 164 117.145 163.022L105.144 137.862L114.204 128.074C114.94 127.278 114.891 126.036 114.095 125.3ZM112.756 162.94L41.8839 196.744L21.6017 154.221L92.4739 120.417L112.756 162.94ZM45.9347 138.276L69.9633 112.304C73.9385 113.824 78.3617 113.656 82.2101 111.839L88.7184 117.869L45.9347 138.276ZM103.329 134.056L95.1724 116.955C94.7057 115.976 93.534 115.562 92.5555 116.028L92.5271 116.042L84.2751 108.403C84.196 108.344 84.1118 108.292 84.0233 108.249C83.4263 107.486 82.3583 107.281 81.5211 107.768C78.1023 109.798 73.8877 109.96 70.3233 108.198C69.4461 107.78 68.3948 108.073 67.8608 108.885C67.7814 108.935 67.7053 108.991 67.6329 109.051L38.2927 140.748C37.9364 141.129 37.7484 141.637 37.7713 142.159L26.7719 147.405L75.4174 94.8524L109.991 126.851L103.329 134.056Z" fill="black"/>
<path d="M40.9873 182.489C44.9123 181.865 48.8864 183.27 51.5475 186.221C52.1294 186.865 53.0651 187.05 53.8483 186.677C53.9375 186.627 54.0222 186.57 54.1017 186.506C54.192 186.491 54.2812 186.468 54.3681 186.44L96.8914 166.157C96.96 166.113 97.0251 166.064 97.0865 166.01C98.0744 165.803 98.7076 164.835 98.5008 163.847C98.4999 163.843 98.4993 163.84 98.4984 163.836C97.8749 159.908 99.2831 155.932 102.24 153.272C102.953 152.618 103.075 151.539 102.525 150.743C102.508 150.646 102.483 150.55 102.452 150.456L95.691 136.282C95.6382 136.198 95.5786 136.119 95.5127 136.045C95.2404 135.116 94.3245 134.532 93.3677 134.676C89.4399 135.299 85.4637 133.89 82.806 130.931C82.1486 130.213 81.0605 130.093 80.2631 130.652C80.1702 130.668 80.0788 130.691 79.9896 130.721L37.4663 151.004C37.3821 151.057 37.3022 151.117 37.2276 151.183C36.3004 151.456 35.7162 152.371 35.8584 153.328C36.4809 157.255 35.0725 161.231 32.1164 163.89C31.4034 164.544 31.2814 165.623 31.8305 166.419C31.8486 166.516 31.8737 166.612 31.906 166.705L38.6668 180.879C38.7167 180.958 38.7726 181.032 38.8338 181.102C39.1023 182.039 40.0233 182.632 40.9873 182.489ZM35.7927 165.734C38.6689 162.608 40.1438 158.444 39.8758 154.204L80.9586 134.609C84.0852 137.485 88.2507 138.959 92.4905 138.691L98.565 151.427C95.6906 154.554 94.216 158.718 94.4819 162.957L53.3973 182.553C50.2704 179.679 46.1062 178.204 41.8673 178.47L35.7927 165.734Z" fill="black"/>
<path d="M72.2495 169.211C78.1208 166.411 80.6102 159.381 77.8097 153.51C75.0093 147.638 67.9797 145.149 62.1084 147.949C56.237 150.75 53.7477 157.78 56.5481 163.651C59.3531 169.517 66.3779 172.005 72.2495 169.211ZM63.7986 151.493C67.7127 149.626 72.3992 151.286 74.2661 155.2C76.1331 159.114 74.4734 163.801 70.5593 165.667C66.6452 167.534 61.9586 165.875 60.0917 161.961C58.2248 158.047 59.8844 153.36 63.7986 151.493Z" fill="black"/>
<path d="M48.9567 170.534C50.4244 169.834 51.0468 168.076 50.3467 166.609C49.6467 165.141 47.8891 164.519 46.4214 165.219C44.9537 165.919 44.3313 167.676 45.0313 169.144C45.7315 170.612 47.4889 171.234 48.9567 170.534ZM47.2665 166.99C47.7557 166.757 48.3416 166.965 48.5749 167.454C48.8083 167.943 48.6008 168.529 48.1116 168.762C47.6223 168.996 47.0365 168.788 46.8031 168.299C46.5698 167.81 46.7772 167.224 47.2665 166.99Z" fill="black"/>
<path d="M87.9366 151.942C89.4044 151.242 90.0268 149.485 89.3267 148.017C88.6267 146.549 86.8691 145.927 85.4014 146.627C83.9336 147.327 83.3112 149.085 84.0113 150.552C84.7115 152.02 86.4689 152.642 87.9366 151.942ZM86.2465 148.399C86.7357 148.165 87.3215 148.373 87.5549 148.862C87.7883 149.351 87.5808 149.937 87.0915 150.171C86.6023 150.404 86.0164 150.196 85.7831 149.707C85.5497 149.218 85.7572 148.632 86.2465 148.399Z" fill="black"/>
</g>
<circle cx="239" cy="59" r="10.5" stroke="#DDE0E6" stroke-width="5"/>
<circle cx="88" cy="263" r="17.5" stroke="#DDE0E6" stroke-width="5"/>
<circle cx="148" cy="28" r="25.5" stroke="#DDE0E6" stroke-width="5"/>
<defs>
<clipPath id="clip0">
<rect width="203.617" height="203.617" fill="white" transform="translate(110 149.475) rotate(-27.3273)"/>
</clipPath>
<clipPath id="clip1">
<rect width="100" height="100" fill="white" transform="translate(0 118.051) rotate(-25.4996)"/>
</clipPath>
</defs>
</svg>
