<svg width="16" height="16" viewBox="0 0 16 16" fill="none" xmlns="http://www.w3.org/2000/svg">
<circle cx="8" cy="8" r="8" fill="#FFBA08"/>
<path d="M7.38147 14.1844H8.25128L8.25591 13.1434C10.213 13 11.3326 11.8804 11.3326 10.3813C11.3326 8.67411 9.81045 8.0125 8.60753 7.7164L8.26979 7.62849L8.27904 4.6582C9.14422 4.77387 9.73643 5.25503 9.82433 6.0138H11.2031C11.1661 4.60268 10.0001 3.54781 8.28367 3.40901L8.28829 2.34026H7.41849L7.41386 3.41826C5.7529 3.58482 4.5361 4.62119 4.5361 6.11559C4.5361 7.43417 5.47993 8.20682 7.00209 8.61859L7.39998 8.725L7.39073 11.8757C6.48854 11.7647 5.78992 11.2743 5.71589 10.3813H4.28164C4.36954 11.9775 5.52157 13.0046 7.3861 13.1434L7.38147 14.1844ZM8.26053 11.8757L8.26979 8.96559C9.20899 9.22468 9.91686 9.56705 9.91686 10.3675C9.91686 11.1771 9.24138 11.7462 8.26053 11.8757ZM7.40461 7.39716C6.71524 7.19359 5.95647 6.82809 5.9611 6.03231C5.9611 5.33831 6.51167 4.797 7.40923 4.66283L7.40461 7.39716Z" fill="white"/>
</svg>
