<svg width="615" height="95" viewBox="0 0 615 95" fill="none" xmlns="http://www.w3.org/2000/svg">
<path d="M43.97 93.65C37.9033 93.65 32.2267 92.4367 26.94 90.01C21.6533 87.5833 16.9733 84.2467 12.9 80C8.91333 75.6667 5.79333 70.64 3.54 64.92C1.28667 59.2 0.16 53.0033 0.16 46.33C0.16 40.0033 1.28667 34.0667 3.54 28.52C5.79333 22.8867 8.95667 17.9467 13.03 13.7C17.1033 9.45333 21.87 6.11666 27.33 3.69C32.79 1.26333 38.7267 0.0499957 45.14 0.0499957C53.72 0.0499957 61.13 1.91333 67.37 5.63999C73.61 9.27999 78.29 14.1333 81.41 20.2L68.02 30.08C65.68 25.5733 62.3867 22.1067 58.14 19.68C53.98 17.1667 49.43 15.91 44.49 15.91C39.29 15.91 34.6967 17.34 30.71 20.2C26.81 23.06 23.7333 26.83 21.48 31.51C19.3133 36.19 18.23 41.3033 18.23 46.85C18.23 52.6567 19.4 57.9 21.74 62.58C24.08 67.26 27.2867 70.9867 31.36 73.76C35.52 76.4467 40.2433 77.79 45.53 77.79C54.4567 77.79 62.5167 73.5867 69.71 65.18V58.68H51.12V45.55H84.53V93H69.71V82.6C62.2567 89.9667 53.6767 93.65 43.97 93.65ZM93.4492 72.85C93.4492 68.43 94.6626 64.5733 97.0892 61.28C99.6026 57.9 103.069 55.3 107.489 53.48C111.909 51.66 116.979 50.75 122.699 50.75C125.559 50.75 128.463 51.01 131.409 51.53C134.356 51.9633 136.913 52.6133 139.079 53.48V49.84C139.079 45.5067 137.779 42.17 135.179 39.83C132.666 37.49 128.896 36.32 123.869 36.32C120.143 36.32 116.589 36.97 113.209 38.27C109.829 39.57 106.276 41.4767 102.549 43.99L96.9592 32.55C101.466 29.6033 106.059 27.3933 110.739 25.92C115.506 24.4467 120.489 23.71 125.689 23.71C135.396 23.71 142.936 26.1367 148.309 30.99C153.769 35.8433 156.499 42.7767 156.499 51.79V73.5C156.499 75.4067 156.803 76.75 157.409 77.53C158.016 78.2233 159.099 78.6567 160.659 78.83V93C159.099 93.3467 157.669 93.5633 156.369 93.65C155.156 93.8233 154.116 93.91 153.249 93.91C149.783 93.91 147.139 93.13 145.319 91.57C143.499 90.01 142.416 88.1033 142.069 85.85L141.679 82.34C138.646 86.24 134.919 89.23 130.499 91.31C126.166 93.3033 121.703 94.3 117.109 94.3C112.516 94.3 108.443 93.39 104.889 91.57C101.336 89.6633 98.5192 87.1067 96.4392 83.9C94.4459 80.6067 93.4492 76.9233 93.4492 72.85ZM135.829 76.36C137.996 74.28 139.079 72.2867 139.079 70.38V63.49C134.573 61.67 130.023 60.76 125.429 60.76C120.836 60.76 117.109 61.7567 114.249 63.75C111.389 65.6567 109.959 68.2133 109.959 71.42C109.959 74.02 110.999 76.36 113.079 78.44C115.159 80.52 118.149 81.56 122.049 81.56C124.649 81.56 127.163 81.0833 129.589 80.13C132.103 79.1767 134.183 77.92 135.829 76.36ZM278.598 93H261.178V54.78C261.178 49.4067 260.224 45.4633 258.318 42.95C256.498 40.35 253.941 39.05 250.648 39.05C247.181 39.05 243.931 40.3933 240.898 43.08C237.864 45.68 235.698 49.1033 234.398 53.35V93H216.978V54.78C216.978 49.32 216.024 45.3333 214.118 42.82C212.298 40.3067 209.741 39.05 206.448 39.05C203.068 39.05 199.818 40.35 196.698 42.95C193.664 45.55 191.498 48.9733 190.198 53.22V93H172.778V24.88H188.508V37.49C191.021 33.07 194.444 29.69 198.778 27.35C203.198 24.9233 208.224 23.71 213.858 23.71C219.491 23.71 223.868 25.0967 226.988 27.87C230.194 30.6433 232.231 34.0667 233.098 38.14C235.784 33.46 239.294 29.9067 243.628 27.48C247.961 24.9667 252.814 23.71 258.188 23.71C262.434 23.71 265.858 24.49 268.458 26.05C271.144 27.5233 273.224 29.56 274.698 32.16C276.171 34.6733 277.168 37.5333 277.688 40.74C278.294 43.9467 278.598 47.1967 278.598 50.49V93ZM325.354 94.3C317.987 94.3 311.617 92.6967 306.244 89.49C300.957 86.2833 296.841 82.0367 293.894 76.75C290.947 71.3767 289.474 65.57 289.474 59.33C289.474 52.9167 290.904 47.0233 293.764 41.65C296.711 36.19 300.871 31.8567 306.244 28.65C311.617 25.3567 318.031 23.71 325.484 23.71C332.937 23.71 339.307 25.3567 344.594 28.65C349.881 31.8567 353.911 36.1467 356.684 41.52C359.544 46.8067 360.974 52.5267 360.974 58.68C360.974 60.9333 360.844 62.8833 360.584 64.53H307.934C308.367 69.8167 310.317 73.9767 313.784 77.01C317.337 80.0433 321.411 81.56 326.004 81.56C329.471 81.56 332.721 80.7367 335.754 79.09C338.874 77.3567 340.997 75.1033 342.124 72.33L357.074 76.49C354.561 81.69 350.531 85.98 344.984 89.36C339.437 92.6533 332.894 94.3 325.354 94.3ZM307.544 53.48H343.164C342.644 48.3667 340.694 44.25 337.314 41.13C334.021 37.9233 329.991 36.32 325.224 36.32C320.544 36.32 316.514 37.9233 313.134 41.13C309.841 44.25 307.977 48.3667 307.544 53.48Z" fill="#5670FB"/>
<path d="M428.266 24.88C427.486 24.0133 425.84 22.8867 423.326 21.5C420.813 20.0267 417.78 18.7267 414.226 17.6C410.76 16.3867 407.163 15.78 403.436 15.78C393.643 15.78 388.746 19.2467 388.746 26.18C388.746 28.6933 389.526 30.6867 391.086 32.16C392.646 33.6333 394.986 34.89 398.106 35.93C401.226 36.97 405.126 38.0967 409.806 39.31C415.873 40.87 421.116 42.69 425.536 44.77C430.043 46.85 433.466 49.6233 435.806 53.09C438.233 56.47 439.446 60.9767 439.446 66.61C439.446 73.1967 437.843 78.5267 434.636 82.6C431.516 86.5867 427.356 89.49 422.156 91.31C416.956 93.13 411.323 94.04 405.256 94.04C398.323 94.04 391.433 93 384.586 90.92C377.826 88.7533 371.803 85.8067 366.516 82.08L374.446 66.61C375.226 67.39 376.613 68.43 378.606 69.73C380.6 70.9433 383.026 72.2 385.886 73.5C388.746 74.7133 391.866 75.7533 395.246 76.62C398.626 77.4867 402.05 77.92 405.516 77.92C415.396 77.92 420.336 74.7567 420.336 68.43C420.336 65.7433 419.34 63.5767 417.346 61.93C415.353 60.2833 412.536 58.8967 408.896 57.77C405.343 56.6433 401.183 55.3867 396.416 54C390.523 52.3533 385.626 50.5333 381.726 48.54C377.913 46.46 375.053 43.9033 373.146 40.87C371.24 37.75 370.286 33.8067 370.286 29.04C370.286 22.7133 371.76 17.4267 374.706 13.18C377.74 8.84666 381.813 5.59666 386.926 3.43C392.04 1.17666 397.716 0.0499957 403.956 0.0499957C410.37 0.0499957 416.35 1.09 421.896 3.16999C427.443 5.24999 432.21 7.63333 436.196 10.32L428.266 24.88ZM490.609 89.49C488.269 90.53 485.366 91.57 481.899 92.61C478.519 93.65 475.009 94.17 471.369 94.17C468.163 94.17 465.216 93.6067 462.529 92.48C459.843 91.3533 457.676 89.5767 456.029 87.15C454.469 84.6367 453.689 81.3867 453.689 77.4V38.27H444.719V24.88H453.689V2.78H471.109V24.88H485.409V38.27H471.109V71.55C471.109 73.89 471.716 75.58 472.929 76.62C474.229 77.66 475.789 78.18 477.609 78.18C479.429 78.18 481.206 77.8767 482.939 77.27C484.673 76.6633 486.059 76.1433 487.099 75.71L490.609 89.49ZM495.002 72.85C495.002 68.43 496.215 64.5733 498.642 61.28C501.155 57.9 504.622 55.3 509.042 53.48C513.462 51.66 518.532 50.75 524.252 50.75C527.112 50.75 530.015 51.01 532.962 51.53C535.909 51.9633 538.465 52.6133 540.632 53.48V49.84C540.632 45.5067 539.332 42.17 536.732 39.83C534.219 37.49 530.449 36.32 525.422 36.32C521.695 36.32 518.142 36.97 514.762 38.27C511.382 39.57 507.829 41.4767 504.102 43.99L498.512 32.55C503.019 29.6033 507.612 27.3933 512.292 25.92C517.059 24.4467 522.042 23.71 527.242 23.71C536.949 23.71 544.489 26.1367 549.862 30.99C555.322 35.8433 558.052 42.7767 558.052 51.79V73.5C558.052 75.4067 558.355 76.75 558.962 77.53C559.569 78.2233 560.652 78.6567 562.212 78.83V93C560.652 93.3467 559.222 93.5633 557.922 93.65C556.709 93.8233 555.669 93.91 554.802 93.91C551.335 93.91 548.692 93.13 546.872 91.57C545.052 90.01 543.969 88.1033 543.622 85.85L543.232 82.34C540.199 86.24 536.472 89.23 532.052 91.31C527.719 93.3033 523.255 94.3 518.662 94.3C514.069 94.3 509.995 93.39 506.442 91.57C502.889 89.6633 500.072 87.1067 497.992 83.9C495.999 80.6067 495.002 76.9233 495.002 72.85ZM537.382 76.36C539.549 74.28 540.632 72.2867 540.632 70.38V63.49C536.125 61.67 531.575 60.76 526.982 60.76C522.389 60.76 518.662 61.7567 515.802 63.75C512.942 65.6567 511.512 68.2133 511.512 71.42C511.512 74.02 512.552 76.36 514.632 78.44C516.712 80.52 519.702 81.56 523.602 81.56C526.202 81.56 528.715 81.0833 531.142 80.13C533.655 79.1767 535.735 77.92 537.382 76.36ZM614.89 39.96C609.604 39.96 604.88 41 600.72 43.08C596.56 45.0733 593.57 47.9767 591.75 51.79V93H574.33V24.88H590.32V39.44C592.66 34.76 595.694 31.0767 599.42 28.39C603.234 25.7033 607.22 24.23 611.38 23.97C613.2 23.97 614.37 24.0133 614.89 24.1V39.96Z" fill="#1B223E"/>
</svg>
