<svg width="14" height="18" viewBox="0 0 14 18" fill="none" xmlns="http://www.w3.org/2000/svg">
<path d="M1.87756 18V15.36H0.101562V13.776H1.87756V12.288H0.101562V9.384H1.87756V0.959999H8.09356C8.90956 0.959999 9.65356 1.12 10.3256 1.44C10.9976 1.76 11.5656 2.192 12.0296 2.736C12.5096 3.28 12.8776 3.888 13.1336 4.56C13.3896 5.232 13.5176 5.92 13.5176 6.624C13.5176 7.584 13.3016 8.496 12.8696 9.36C12.4536 10.224 11.8456 10.928 11.0456 11.472C10.2616 12.016 9.32556 12.288 8.23756 12.288H5.16556V13.776H8.33356V15.36H5.16556V18H1.87756ZM5.16556 9.384H8.02156C8.77356 9.384 9.31756 9.136 9.65356 8.64C10.0056 8.128 10.1816 7.456 10.1816 6.624C10.1816 5.744 9.97356 5.064 9.55756 4.584C9.15756 4.104 8.59756 3.864 7.87756 3.864H5.16556V9.384Z" fill="#5670FB"/>
</svg>
