<svg width="19" height="19" viewBox="0 0 19 19" fill="none" xmlns="http://www.w3.org/2000/svg">
<path d="M14.25 12.7299C13.6483 12.7299 13.11 12.9674 12.6983 13.3395L7.05375 10.0541C7.09333 9.872 7.125 9.68992 7.125 9.49992C7.125 9.30992 7.09333 9.12784 7.05375 8.94575L12.635 5.692C13.0625 6.08784 13.6246 6.33325 14.25 6.33325C15.5642 6.33325 16.625 5.27242 16.625 3.95825C16.625 2.64409 15.5642 1.58325 14.25 1.58325C12.9358 1.58325 11.875 2.64409 11.875 3.95825C11.875 4.14825 11.9067 4.33034 11.9462 4.51242L6.365 7.76617C5.9375 7.37034 5.37542 7.12492 4.75 7.12492C3.43583 7.12492 2.375 8.18575 2.375 9.49992C2.375 10.8141 3.43583 11.8749 4.75 11.8749C5.37542 11.8749 5.9375 11.6295 6.365 11.2337L12.0017 14.527C11.9621 14.6933 11.9383 14.8674 11.9383 15.0416C11.9383 16.3162 12.9754 17.3533 14.25 17.3533C15.5246 17.3533 16.5617 16.3162 16.5617 15.0416C16.5617 13.767 15.5246 12.7299 14.25 12.7299ZM14.25 3.16659C14.6854 3.16659 15.0417 3.52284 15.0417 3.95825C15.0417 4.39367 14.6854 4.74992 14.25 4.74992C13.8146 4.74992 13.4583 4.39367 13.4583 3.95825C13.4583 3.52284 13.8146 3.16659 14.25 3.16659ZM4.75 10.2916C4.31458 10.2916 3.95833 9.93534 3.95833 9.49992C3.95833 9.0645 4.31458 8.70825 4.75 8.70825C5.18542 8.70825 5.54167 9.0645 5.54167 9.49992C5.54167 9.93534 5.18542 10.2916 4.75 10.2916ZM14.25 15.8491C13.8146 15.8491 13.4583 15.4928 13.4583 15.0574C13.4583 14.622 13.8146 14.2658 14.25 14.2658C14.6854 14.2658 15.0417 14.622 15.0417 15.0574C15.0417 15.4928 14.6854 15.8491 14.25 15.8491Z" fill="#5670FB"/>
</svg>
