<svg width="12" height="12" viewBox="0 0 12 12" fill="none" xmlns="http://www.w3.org/2000/svg">
<path d="M5.02723 1.65636C5.33855 0.772882 6.58798 0.772883 6.89929 1.65636L7.57486 3.57357C7.71477 3.97061 8.08993 4.23618 8.51089 4.23618H10.5147C11.4954 4.23618 11.8819 5.50726 11.0671 6.05314L9.58814 7.04392C9.21179 7.29605 9.05393 7.77102 9.20448 8.19827L9.80137 9.89217C10.1186 10.7925 9.10606 11.5778 8.31296 11.0465L6.51563 9.84242C6.18142 9.61852 5.7451 9.61852 5.41089 9.84242L3.61356 11.0465C2.82046 11.5778 1.80789 10.7925 2.12516 9.89217L2.72204 8.19827C2.87259 7.77102 2.71473 7.29605 2.33838 7.04392L0.85947 6.05314C0.0446522 5.50726 0.431071 4.23618 1.41184 4.23618H3.41563C3.83659 4.23618 4.21175 3.97061 4.35166 3.57357L5.02723 1.65636Z" fill="#E8E7EA"/>
</svg>
