<svg width="12" height="12" viewBox="0 0 12 12" fill="none" xmlns="http://www.w3.org/2000/svg">
<path d="M5.15467 1.65636C5.46599 0.772882 6.71542 0.772883 7.02673 1.65636L7.7023 3.57357C7.84221 3.97061 8.21737 4.23618 8.63833 4.23618H10.6421C11.6229 4.23618 12.0093 5.50726 11.1945 6.05314L9.71558 7.04392C9.33923 7.29605 9.18137 7.77102 9.33192 8.19827L9.92881 9.89217C10.2461 10.7925 9.23351 11.5778 8.4404 11.0465L6.64307 9.84242C6.30886 9.61852 5.87254 9.61852 5.53833 9.84242L3.741 11.0465C2.9479 11.5778 1.93533 10.7925 2.2526 9.89217L2.84948 8.19827C3.00003 7.77102 2.84217 7.29605 2.46583 7.04392L0.986912 6.05314C0.172094 5.50726 0.558512 4.23618 1.53928 4.23618H3.54307C3.96403 4.23618 4.3392 3.97061 4.4791 3.57357L5.15467 1.65636Z" fill="#FC8E3E"/>
</svg>
