<svg width="1313" height="488" viewBox="0 0 1313 488" fill="none" xmlns="http://www.w3.org/2000/svg">
<g opacity="0.05" clip-path="url(#clip0)">
<path d="M232.211 87.3245C223.36 79.7069 212.544 72.3302 201.587 66.2138C191.001 60.4447 180.448 55.7511 171.222 53.3484C136.331 44.9306 126.646 62.2783 115.282 83.267C111.54 89.8432 107.636 96.9626 102.635 103.399L100.898 105.247C94.7873 110.642 87.9257 114.983 81.5963 119.128C61.5438 131.956 44.6503 142.532 55.4172 177.002C58.3919 186.06 63.5622 196.484 70.1554 206.504C76.9446 217.057 84.9829 227.391 93.1387 235.748C102.219 244.974 109.927 250.474 116.643 252.955C122.989 255.089 128.54 254.736 133.296 251.896C137.519 249.252 140.969 244.838 143.114 238.85C146.929 228.863 148.457 214.641 148.518 199.388C148.356 188.449 155.654 175.123 165.725 164.401C175.796 153.68 188.639 145.563 199.568 145.042C214.787 144.028 228.885 141.613 238.615 137.182C244.272 134.493 248.647 130.948 251.021 126.567C253.385 121.828 253.749 116.255 250.853 109.707C248.142 103.333 242.17 95.9839 232.211 87.3245ZM242.361 113.561C243.907 117.101 243.997 119.969 242.815 122.338C241.46 124.893 238.659 127.133 234.772 129.049C226.107 133.088 213.257 135.284 199.287 136.08C185.665 136.506 170.519 145.592 158.885 157.977C147.252 170.362 139.13 186.046 139.013 199.506C138.918 213.683 137.714 226.818 134.214 235.361C132.545 239.36 130.668 242.469 128.019 243.808C125.728 245.135 122.86 245.225 119.23 243.903C114.329 242.083 107.904 237.44 99.7482 229.083C92.1468 221.246 84.3046 211.444 77.8851 201.239C71.8465 191.739 66.8834 182.206 64.2897 173.854C55.5395 146.497 69.6099 137.445 86.5034 126.869C93.3649 122.528 100.4 118.002 107.032 112.053C107.206 111.868 107.206 111.868 107.379 111.683L109.289 109.65C109.463 109.465 109.463 109.465 109.637 109.28C115.333 102.104 119.41 94.8001 123.314 87.6807C132.999 70.3329 140.969 55.5506 168.819 62.5739C177.317 64.6406 186.957 68.8245 197 74.4312C207.413 80.3851 217.675 87.2409 226.156 94.5112C235.006 102.129 240.042 108.251 242.361 113.561Z" fill="black"/>
<path d="M110.562 144.596C107.162 144.882 103.784 145.885 101.168 148.299C98.5917 146.226 95.1468 145.078 91.9204 145.179L91.562 145.19C87.6186 145.314 84.0786 146.86 81.3004 149.817C78.5222 152.775 77.2116 156.763 77.3237 160.348C77.4246 163.575 78.6122 167.126 81.0265 169.742C78.7804 172.503 77.8059 175.763 77.7332 179.174L77.7444 179.533C77.8677 183.476 79.4138 187.016 82.3714 189.794C85.329 192.573 89.3173 193.883 92.9021 193.771C96.487 193.659 99.6798 192.483 102.469 189.883C105.231 192.13 108.676 193.278 112.076 192.992C116.019 192.869 119.559 191.322 122.337 188.365C125.115 185.407 126.426 181.419 126.314 177.834C126.028 174.434 125.025 171.057 122.611 168.441C124.857 165.679 126.005 162.234 125.72 158.834C125.596 154.891 124.05 151.351 121.093 148.573C118.135 145.795 114.147 144.484 110.562 144.596ZM116.573 158.941C116.617 160.375 116.119 161.646 115.077 162.756L112.646 165.344C110.91 167.192 110.826 170.245 112.859 172.155L115.262 174.412C116.371 175.454 116.948 176.692 116.993 178.126C117.038 179.56 116.54 180.831 115.498 181.94C114.456 183.049 113.218 183.626 111.784 183.671C110.35 183.716 109.079 183.218 107.969 182.176L105.382 179.745C103.533 178.009 100.48 177.925 98.5703 179.958L96.1394 182.546C95.0976 183.655 93.8597 184.232 92.4257 184.277C91.3503 184.31 89.9051 183.997 88.796 182.955C87.6869 181.913 87.1099 180.675 87.0651 179.241C87.0651 179.241 87.0651 179.241 87.0539 178.883C87.1939 177.623 87.6923 176.351 88.5605 175.427L90.9914 172.839C92.7278 170.99 92.8117 167.938 90.7784 166.028L88.1905 163.597C87.0814 162.555 86.5044 161.317 86.4595 159.883C86.4147 158.449 86.9132 157.178 87.955 156.068C88.9968 154.959 90.2347 154.382 91.6687 154.337C91.6687 154.337 91.6687 154.337 92.0271 154.326C93.2875 154.466 94.559 154.965 95.4832 155.833L98.0711 158.264C99.9197 160 102.972 160.084 104.882 158.051L107.313 155.463C108.355 154.354 109.593 153.777 111.027 153.732C112.461 153.687 113.732 154.186 114.842 155.227C115.951 156.269 116.528 157.507 116.573 158.941Z" fill="black"/>
<path d="M157.674 96.2932C161.03 92.7201 160.855 87.1025 157.282 83.7461C153.708 80.3897 148.091 80.5655 144.735 84.1386C141.378 87.7118 141.554 93.3293 145.127 96.6857C148.7 100.042 154.318 99.8664 157.674 96.2932Z" fill="black"/>
<path d="M183.923 120.95C187.279 117.377 187.103 111.759 183.53 108.403C179.957 105.046 174.339 105.222 170.983 108.795C167.627 112.369 167.802 117.986 171.376 121.342C174.949 124.699 180.566 124.523 183.923 120.95Z" fill="black"/>
<path d="M158.47 121.746C161.827 118.173 161.651 112.555 158.078 109.199C154.505 105.842 148.887 106.018 145.531 109.591C142.175 113.164 142.35 118.782 145.923 122.138C149.497 125.495 155.114 125.319 158.47 121.746Z" fill="black"/>
<path d="M183.126 95.4981C186.483 91.9249 186.307 86.3074 182.734 82.951C179.161 79.5946 173.543 79.7703 170.187 83.3435C166.83 86.9166 167.006 92.5341 170.579 95.8905C174.152 99.2469 179.77 99.0712 183.126 95.4981Z" fill="black"/>
</g>
<g opacity="0.05" clip-path="url(#clip1)">
<path d="M1177.09 196.299C1177.09 196.299 1177.09 196.299 1177.09 196.299L1139.64 161.638C1138.85 160.901 1137.61 160.949 1136.87 161.744C1136.87 161.744 1136.87 161.745 1136.87 161.746L1080.86 222.249C1080.64 222.505 1080.49 222.816 1080.42 223.15C1079.99 223.723 1079.91 224.488 1080.21 225.139L1102.19 271.206C1102.65 272.184 1103.82 272.599 1104.8 272.132L1179.22 236.638C1180.2 236.172 1180.61 235 1180.14 234.022L1168.14 208.862L1177.2 199.073C1177.94 198.277 1177.89 197.035 1177.09 196.299ZM1175.76 233.94L1104.88 267.744L1084.6 225.22L1155.47 191.417L1175.76 233.94ZM1108.93 209.275L1132.96 183.304C1136.94 184.824 1141.36 184.656 1145.21 182.839L1151.72 188.869L1108.93 209.275ZM1166.33 205.056L1158.17 187.955C1157.71 186.976 1156.53 186.561 1155.56 187.028L1155.53 187.041L1147.28 179.403C1147.2 179.344 1147.11 179.292 1147.02 179.249C1146.43 178.486 1145.36 178.281 1144.52 178.768C1141.1 180.798 1136.89 180.96 1133.32 179.198C1132.45 178.78 1131.39 179.073 1130.86 179.885C1130.78 179.935 1130.71 179.99 1130.63 180.05L1101.29 211.748C1100.94 212.129 1100.75 212.637 1100.77 213.158L1089.77 218.405L1138.42 165.852L1172.99 197.851L1166.33 205.056Z" fill="black"/>
<path d="M1103.99 253.489C1107.91 252.865 1111.89 254.269 1114.55 257.221C1115.13 257.865 1116.07 258.05 1116.85 257.676C1116.94 257.627 1117.02 257.569 1117.1 257.505C1117.19 257.49 1117.28 257.468 1117.37 257.439L1159.89 237.157C1159.96 237.113 1160.03 237.063 1160.09 237.01C1161.07 236.803 1161.71 235.834 1161.5 234.846C1161.5 234.843 1161.5 234.839 1161.5 234.835C1160.87 230.908 1162.28 226.931 1165.24 224.271C1165.95 223.618 1166.07 222.539 1165.53 221.742C1165.51 221.645 1165.48 221.549 1165.45 221.456L1158.69 207.281C1158.64 207.197 1158.58 207.118 1158.51 207.044C1158.24 206.116 1157.32 205.531 1156.37 205.675C1152.44 206.299 1148.46 204.889 1145.81 201.93C1145.15 201.212 1144.06 201.093 1143.26 201.651C1143.17 201.668 1143.08 201.691 1142.99 201.721L1100.47 222.003C1100.38 222.056 1100.3 222.116 1100.23 222.182C1099.3 222.456 1098.72 223.371 1098.86 224.327C1099.48 228.255 1098.07 232.23 1095.12 234.89C1094.4 235.543 1094.28 236.622 1094.83 237.419C1094.85 237.516 1094.87 237.611 1094.91 237.705L1101.67 251.879C1101.72 251.957 1101.77 252.032 1101.83 252.102C1102.1 253.038 1103.02 253.632 1103.99 253.489ZM1098.79 236.734C1101.67 233.608 1103.14 229.443 1102.88 225.204L1143.96 205.608C1147.09 208.484 1151.25 209.959 1155.49 209.691L1161.56 222.426C1158.69 225.553 1157.22 229.718 1157.48 233.957L1116.4 253.553C1113.27 250.678 1109.11 249.204 1104.87 249.469L1098.79 236.734Z" fill="black"/>
<path d="M1135.25 240.211C1141.12 237.411 1143.61 230.381 1140.81 224.51C1138.01 218.638 1130.98 216.149 1125.11 218.949C1119.24 221.75 1116.75 228.78 1119.55 234.651C1122.35 240.517 1129.38 243.005 1135.25 240.211ZM1126.8 222.493C1130.71 220.626 1135.4 222.286 1137.27 226.2C1139.13 230.114 1137.47 234.801 1133.56 236.667C1129.65 238.534 1124.96 236.875 1123.09 232.961C1121.22 229.047 1122.88 224.36 1126.8 222.493Z" fill="black"/>
<path d="M1111.96 241.534C1113.42 240.834 1114.05 239.076 1113.35 237.609C1112.65 236.141 1110.89 235.518 1109.42 236.218C1107.95 236.918 1107.33 238.676 1108.03 240.144C1108.73 241.612 1110.49 242.234 1111.96 241.534ZM1110.27 237.99C1110.76 237.757 1111.34 237.964 1111.57 238.454C1111.81 238.943 1111.6 239.529 1111.11 239.762C1110.62 239.995 1110.04 239.788 1109.8 239.299C1109.57 238.809 1109.78 238.224 1110.27 237.99Z" fill="black"/>
<path d="M1150.94 222.942C1152.4 222.242 1153.03 220.484 1152.33 219.016C1151.63 217.549 1149.87 216.926 1148.4 217.626C1146.93 218.326 1146.31 220.084 1147.01 221.552C1147.71 223.02 1149.47 223.642 1150.94 222.942ZM1149.25 219.398C1149.74 219.165 1150.32 219.372 1150.55 219.862C1150.79 220.351 1150.58 220.937 1150.09 221.17C1149.6 221.403 1149.02 221.196 1148.78 220.707C1148.55 220.217 1148.76 219.632 1149.25 219.398Z" fill="black"/>
</g>
<circle cx="1300" cy="425" r="10.5" stroke="#DDE0E6" stroke-width="5"/>
<circle cx="1216" cy="424" r="17.5" stroke="#DDE0E6" stroke-width="5"/>
<circle cx="1250" cy="335" r="25.5" stroke="#DDE0E6" stroke-width="5"/>
<circle cx="102" cy="475" r="10.5" stroke="#DDE0E6" stroke-width="5"/>
<circle cx="150" cy="392" r="17.5" stroke="#DDE0E6" stroke-width="5"/>
<circle cx="74" cy="327" r="25.5" stroke="#DDE0E6" stroke-width="5"/>
<defs>
<clipPath id="clip0">
<rect width="203.617" height="203.617" fill="white" transform="translate(0.000244141 148.41) rotate(-46.7917)"/>
</clipPath>
<clipPath id="clip1">
<rect width="100" height="100" fill="white" transform="translate(1063 189.051) rotate(-25.4996)"/>
</clipPath>
</defs>
</svg>
